# xmcd
#
# Track frame offsets:
#	150
#	29198
#	58409
#	82342
#	107934
#	137592
#	163935
#	194476
#	227807
#	247953
#
# Disc length: 4439 seconds
#
# Revision: 1
# Processed by: cddbd v1.5.1PL0 Copyright (c) Steve Scherf et al.
# Submitted via: CDmax 2.0
#
DISCID=9a11550a
DTITLE=Bent - Programmed To Love
DYEAR=2001
DGENRE=Electro
TTITLE0=Exercise 1
TTITLE1=Private Road
TTITLE2=Cylons In Love
TTITLE3=Chocolate Wings
TTITLE4=Invisible Pedestrian
TTITLE5=I Remember Johnny
TTITLE6=Swollen
TTITLE7=Welly Top Mary
TTITLE8=Irritating Noises
TTITLE9=Always
EXTD=
EXTT0=
EXTT1=
EXTT2=
EXTT3=
EXTT4=
EXTT5=
EXTT6=
EXTT7=
EXTT8=
EXTT9=
PLAYORDER=
